<svg width="474" height="161" viewBox="0 0 474 161" fill="none" xmlns="http://www.w3.org/2000/svg">
<mask id="path-1-outside-1_9_4" maskUnits="userSpaceOnUse" x="84" y="26" width="390" height="131" fill="black">
<rect fill="white" x="84" y="26" width="390" height="131"/>
<path d="M125.096 124L92.072 31.84H112.552L137.768 108.64H135.336L160.68 31.84H180.136L147.112 124H125.096ZM212.406 125.28C205.238 125.28 198.923 123.872 193.462 121.056C188.086 118.155 183.862 114.144 180.79 109.024C177.803 103.819 176.31 97.8453 176.31 91.104C176.31 84.3627 177.803 78.4747 180.79 73.44C183.862 68.4053 188.086 64.48 193.462 61.664C198.923 58.848 205.238 57.44 212.406 57.44C219.659 57.44 225.974 58.848 231.35 61.664C236.811 64.48 241.035 68.4053 244.022 73.44C247.009 78.4747 248.502 84.3627 248.502 91.104C248.502 97.8453 246.966 103.819 243.894 109.024C240.907 114.144 236.683 118.155 231.222 121.056C225.846 123.872 219.574 125.28 212.406 125.28ZM212.406 110.176C215.393 110.176 218.081 109.408 220.47 107.872C222.945 106.336 224.907 104.16 226.358 101.344C227.809 98.4427 228.534 94.9867 228.534 90.976C228.534 85.088 226.955 80.5653 223.798 77.408C220.726 74.1653 216.929 72.544 212.406 72.544C207.883 72.544 204.043 74.1653 200.886 77.408C197.814 80.6507 196.278 85.1733 196.278 90.976C196.278 94.9867 197.003 98.4427 198.454 101.344C199.905 104.16 201.825 106.336 204.214 107.872C206.689 109.408 209.419 110.176 212.406 110.176ZM289.385 151.52C280.34 151.52 272.958 149.6 267.241 145.76C261.609 141.92 258.281 136.715 257.257 130.144H275.433C276.116 131.765 277.566 133.003 279.785 133.856C282.089 134.709 284.99 135.136 288.489 135.136C294.292 135.136 298.516 134.027 301.161 131.808C303.806 129.589 305.129 126.133 305.129 121.44V107.232L306.153 107.488C305.3 112.267 302.825 116.064 298.729 118.88C294.633 121.611 289.556 122.976 283.497 122.976C277.694 122.976 272.617 121.653 268.265 119.008C263.998 116.277 260.67 112.48 258.281 107.616C255.892 102.752 254.697 97.0347 254.697 90.464C254.697 83.808 255.934 78.0053 258.409 73.056C260.884 68.1067 264.34 64.2667 268.777 61.536C273.3 58.8053 278.548 57.44 284.521 57.44C290.665 57.44 295.657 58.8907 299.497 61.792C303.422 64.6933 305.726 68.6613 306.409 73.696L305.513 73.824V58.72H324.329V121.184C324.329 130.571 321.214 137.952 314.985 143.328C308.756 148.789 300.222 151.52 289.385 151.52ZM290.153 108.256C294.676 108.256 298.345 106.72 301.161 103.648C303.977 100.491 305.385 96.0107 305.385 90.208C305.385 84.4053 303.934 79.968 301.033 76.896C298.217 73.7387 294.505 72.16 289.897 72.16C285.46 72.16 281.79 73.7387 278.889 76.896C276.073 80.0533 274.665 84.5333 274.665 90.336C274.665 96.1387 276.073 100.576 278.889 103.648C281.79 106.72 285.545 108.256 290.153 108.256ZM370.4 125.28C363.147 125.28 356.832 123.872 351.456 121.056C346.08 118.155 341.899 114.144 338.912 109.024C336.011 103.904 334.56 98.016 334.56 91.36C334.56 84.6187 336.011 78.7307 338.912 73.696C341.899 68.576 346.037 64.608 351.328 61.792C356.619 58.8907 362.763 57.44 369.76 57.44C376.501 57.44 382.347 58.8053 387.296 61.536C392.245 64.2667 396.085 68.064 398.816 72.928C401.547 77.792 402.912 83.5093 402.912 90.08C402.912 91.4453 402.869 92.7253 402.784 93.92C402.699 95.0293 402.571 96.096 402.4 97.12H345.824V84.448H386.912L383.584 86.752C383.584 81.4613 382.304 77.5787 379.744 75.104C377.269 72.544 373.856 71.264 369.504 71.264C364.469 71.264 360.544 72.9707 357.728 76.384C354.997 79.7973 353.632 84.9173 353.632 91.744C353.632 98.4 354.997 103.349 357.728 106.592C360.544 109.835 364.725 111.456 370.272 111.456C373.344 111.456 375.989 110.944 378.208 109.92C380.427 108.896 382.091 107.232 383.2 104.928H401.248C399.115 111.243 395.445 116.235 390.24 119.904C385.12 123.488 378.507 125.28 370.4 125.28ZM440.173 125.28C430.616 125.28 423.021 123.36 417.389 119.52C411.757 115.68 408.685 110.389 408.173 103.648H425.325C425.752 106.549 427.202 108.768 429.677 110.304C432.237 111.755 435.736 112.48 440.173 112.48C444.184 112.48 447.085 111.925 448.877 110.816C450.754 109.621 451.693 107.957 451.693 105.824C451.693 104.203 451.138 102.965 450.029 102.112C449.005 101.173 447.085 100.405 444.269 99.808L433.773 97.632C426.008 96.0107 420.29 93.5787 416.621 90.336C412.952 87.008 411.117 82.7413 411.117 77.536C411.117 71.2213 413.549 66.3147 418.413 62.816C423.277 59.232 430.061 57.44 438.765 57.44C447.384 57.44 454.253 59.1893 459.373 62.688C464.493 66.1013 467.309 70.88 467.821 77.024H450.669C450.328 74.8053 449.133 73.1413 447.085 72.032C445.037 70.8373 442.136 70.24 438.381 70.24C434.968 70.24 432.408 70.752 430.701 71.776C429.08 72.7147 428.269 74.08 428.269 75.872C428.269 77.408 428.952 78.6453 430.317 79.584C431.682 80.4373 433.944 81.2053 437.101 81.888L448.877 84.32C455.448 85.6853 460.397 88.2453 463.725 92C467.138 95.6693 468.845 100.021 468.845 105.056C468.845 111.456 466.328 116.448 461.293 120.032C456.344 123.531 449.304 125.28 440.173 125.28Z"/>
</mask>
<path d="M125.096 124L120.389 125.687L121.576 129H125.096V124ZM92.072 31.84V26.84H84.969L87.3651 33.5266L92.072 31.84ZM112.552 31.84L117.302 30.2803L116.173 26.84H112.552V31.84ZM137.768 108.64V113.64H144.672L142.518 107.08L137.768 108.64ZM135.336 108.64L130.588 107.073L128.421 113.64H135.336V108.64ZM160.68 31.84V26.84H157.065L155.932 30.2731L160.68 31.84ZM180.136 31.84L184.843 33.5266L187.239 26.84H180.136V31.84ZM147.112 124V129H150.632L151.819 125.687L147.112 124ZM129.803 122.313L96.7789 30.1533L87.3651 33.5266L120.389 125.687L129.803 122.313ZM92.072 36.84H112.552V26.84H92.072V36.84ZM107.802 33.3997L133.018 110.2L142.518 107.08L117.302 30.2803L107.802 33.3997ZM137.768 103.64H135.336V113.64H137.768V103.64ZM140.084 110.207L165.428 33.4069L155.932 30.2731L130.588 107.073L140.084 110.207ZM160.68 36.84H180.136V26.84H160.68V36.84ZM175.429 30.1533L142.405 122.313L151.819 125.687L184.843 33.5266L175.429 30.1533ZM147.112 119H125.096V129H147.112V119ZM193.462 121.056L191.087 125.456L191.129 125.478L191.171 125.5L193.462 121.056ZM180.79 109.024L176.453 111.512L176.477 111.555L176.503 111.596L180.79 109.024ZM180.79 73.44L176.522 70.8357L176.506 70.8622L176.49 70.889L180.79 73.44ZM193.462 61.664L191.171 57.22L191.156 57.2274L191.142 57.2348L193.462 61.664ZM231.35 61.664L229.03 66.0932L229.044 66.1006L229.059 66.108L231.35 61.664ZM244.022 73.44L239.722 75.991L239.722 75.991L244.022 73.44ZM243.894 109.024L239.588 106.483L239.582 106.494L239.575 106.505L243.894 109.024ZM231.222 121.056L233.542 125.485L233.555 125.478L233.568 125.472L231.222 121.056ZM220.47 107.872L217.833 103.624L217.8 103.645L217.766 103.666L220.47 107.872ZM226.358 101.344L230.803 103.634L230.817 103.607L230.83 103.58L226.358 101.344ZM223.798 77.408L220.168 80.8467L220.215 80.8958L220.262 80.9435L223.798 77.408ZM200.886 77.408L197.304 73.9199L197.28 73.9444L197.256 73.9693L200.886 77.408ZM198.454 101.344L193.982 103.58L193.995 103.607L194.009 103.634L198.454 101.344ZM204.214 107.872L201.51 112.078L201.544 112.099L201.577 112.12L204.214 107.872ZM212.406 120.28C205.902 120.28 200.397 119.006 195.753 116.612L191.171 125.5C197.45 128.738 204.574 130.28 212.406 130.28V120.28ZM195.837 116.656C191.232 114.171 187.676 110.783 185.077 106.452L176.503 111.596C180.048 117.505 184.94 122.139 191.087 125.456L195.837 116.656ZM185.127 106.536C182.626 102.178 181.31 97.0821 181.31 91.104H171.31C171.31 98.6086 172.98 105.46 176.453 111.512L185.127 106.536ZM181.31 91.104C181.31 85.1221 182.627 80.1427 185.09 75.991L176.49 70.889C172.979 76.8066 171.31 83.6032 171.31 91.104H181.31ZM185.058 76.0443C187.644 71.8064 191.184 68.5015 195.782 66.0932L191.142 57.2348C184.988 60.4585 180.08 65.0042 176.522 70.8357L185.058 76.0443ZM195.753 66.108C200.397 63.7137 205.902 62.44 212.406 62.44V52.44C204.574 52.44 197.45 53.9822 191.171 57.22L195.753 66.108ZM212.406 62.44C219.008 62.44 224.497 63.7187 229.03 66.0932L233.67 57.2348C227.451 53.9773 220.311 52.44 212.406 52.44V62.44ZM229.059 66.108C233.729 68.5164 237.238 71.8043 239.722 75.991L248.322 70.889C244.833 65.0063 239.893 60.4436 233.641 57.22L229.059 66.108ZM239.722 75.991C242.185 80.1427 243.502 85.1221 243.502 91.104H253.502C253.502 83.6032 251.833 76.8066 248.322 70.889L239.722 75.991ZM243.502 91.104C243.502 97.0571 242.155 102.133 239.588 106.483L248.2 111.565C251.777 105.504 253.502 98.6335 253.502 91.104H243.502ZM239.575 106.505C237.078 110.786 233.554 114.156 228.876 116.64L233.568 125.472C239.813 122.154 244.737 117.502 248.213 111.543L239.575 106.505ZM228.902 116.627C224.361 119.006 218.912 120.28 212.406 120.28V130.28C220.236 130.28 227.331 128.738 233.542 125.485L228.902 116.627ZM212.406 115.176C216.3 115.176 219.935 114.16 223.174 112.078L217.766 103.666C216.226 104.656 214.486 105.176 212.406 105.176V115.176ZM223.107 112.12C226.417 110.066 228.975 107.181 230.803 103.634L221.913 99.0542C220.839 101.139 219.472 102.606 217.833 103.624L223.107 112.12ZM230.83 103.58C232.7 99.8397 233.534 95.583 233.534 90.976H223.534C223.534 94.3904 222.917 97.0456 221.886 99.1079L230.83 103.58ZM233.534 90.976C233.534 84.2002 231.699 78.2376 227.334 73.8725L220.262 80.9435C222.212 82.8931 223.534 85.9758 223.534 90.976H233.534ZM227.428 73.9693C223.398 69.7159 218.282 67.544 212.406 67.544V77.544C215.575 77.544 218.054 78.6148 220.168 80.8467L227.428 73.9693ZM212.406 67.544C206.533 67.544 201.401 69.7114 197.304 73.9199L204.468 80.8961C206.685 78.6193 209.234 77.544 212.406 77.544V67.544ZM197.256 73.9693C193.066 78.3928 191.278 84.2896 191.278 90.976H201.278C201.278 86.057 202.563 82.9085 204.516 80.8467L197.256 73.9693ZM191.278 90.976C191.278 95.583 192.112 99.8397 193.982 103.58L202.926 99.1079C201.895 97.0456 201.278 94.3904 201.278 90.976H191.278ZM194.009 103.634C195.814 107.138 198.3 110.014 201.51 112.078L206.918 103.666C205.349 102.658 203.995 101.182 202.899 99.0542L194.009 103.634ZM201.577 112.12C204.865 114.161 208.512 115.176 212.406 115.176V105.176C210.326 105.176 208.513 104.655 206.851 103.624L201.577 112.12ZM267.241 145.76L264.424 149.891L264.439 149.901L264.453 149.911L267.241 145.76ZM257.257 130.144V125.144H251.417L252.317 130.914L257.257 130.144ZM275.433 130.144L280.041 128.204L278.753 125.144H275.433V130.144ZM279.785 133.856L277.99 138.523L278.019 138.534L278.048 138.545L279.785 133.856ZM301.161 131.808L304.374 135.639L304.374 135.639L301.161 131.808ZM305.129 107.232L306.342 102.381L300.129 100.828V107.232H305.129ZM306.153 107.488L311.075 108.367L311.896 103.77L307.366 102.637L306.153 107.488ZM298.729 118.88L301.503 123.04L301.532 123.02L301.562 123L298.729 118.88ZM268.265 119.008L265.57 123.219L265.618 123.251L265.668 123.281L268.265 119.008ZM258.281 107.616L253.793 109.821L258.281 107.616ZM258.409 73.056L253.937 70.8199L253.937 70.8199L258.409 73.056ZM268.777 61.536L266.193 57.2557L266.175 57.2666L266.157 57.2777L268.777 61.536ZM299.497 61.792L296.483 65.7813L296.504 65.7972L296.525 65.8129L299.497 61.792ZM306.409 73.696L307.116 78.6457L312.031 77.9437L311.364 73.0242L306.409 73.696ZM305.513 73.824H300.513V79.589L306.22 78.7737L305.513 73.824ZM305.513 58.72V53.72H300.513V58.72H305.513ZM324.329 58.72H329.329V53.72H324.329V58.72ZM314.985 143.328L311.718 139.543L311.703 139.555L311.689 139.568L314.985 143.328ZM301.161 103.648L304.847 107.027L304.87 107.002L304.892 106.976L301.161 103.648ZM301.033 76.896L297.302 80.2241L297.349 80.2773L297.398 80.3291L301.033 76.896ZM278.889 76.896L275.207 73.5129L275.182 73.5402L275.158 73.5679L278.889 76.896ZM278.889 103.648L275.203 107.027L275.228 107.054L275.254 107.081L278.889 103.648ZM289.385 146.52C281.026 146.52 274.699 144.746 270.029 141.609L264.453 149.911C271.217 154.454 279.653 156.52 289.385 156.52V146.52ZM270.058 141.629C265.535 138.545 263.003 134.541 262.197 129.374L252.317 130.914C253.559 138.889 257.683 145.295 264.424 149.891L270.058 141.629ZM257.257 135.144H275.433V125.144H257.257V135.144ZM270.825 132.084C272.201 135.352 274.963 137.359 277.99 138.523L281.58 129.189C280.874 128.918 280.481 128.657 280.278 128.484C280.095 128.328 280.055 128.236 280.041 128.204L270.825 132.084ZM278.048 138.545C281.09 139.671 284.628 140.136 288.489 140.136V130.136C285.352 130.136 283.088 129.747 281.522 129.167L278.048 138.545ZM288.489 140.136C294.731 140.136 300.392 138.979 304.374 135.639L297.948 127.977C296.64 129.074 293.852 130.136 288.489 130.136V140.136ZM304.374 135.639C308.521 132.161 310.129 127.051 310.129 121.44H300.129C300.129 125.216 299.092 127.018 297.948 127.977L304.374 135.639ZM310.129 121.44V107.232H300.129V121.44H310.129ZM303.916 112.083L304.94 112.339L307.366 102.637L306.342 102.381L303.916 112.083ZM301.231 106.609C300.619 110.036 298.92 112.681 295.896 114.76L301.562 123C306.73 119.447 309.98 114.497 311.075 108.367L301.231 106.609ZM295.956 114.72C292.853 116.788 288.798 117.976 283.497 117.976V127.976C290.313 127.976 296.413 126.433 301.503 123.04L295.956 114.72ZM283.497 117.976C278.48 117.976 274.327 116.841 270.862 114.735L265.668 123.281C270.907 126.465 276.909 127.976 283.497 127.976V117.976ZM270.96 114.797C267.517 112.593 264.784 109.515 262.769 105.411L253.793 109.821C256.556 115.445 260.479 119.962 265.57 123.219L270.96 114.797ZM262.769 105.411C260.781 101.364 259.697 96.4304 259.697 90.464H249.697C249.697 97.639 251.003 104.14 253.793 109.821L262.769 105.411ZM259.697 90.464C259.697 84.4285 260.817 79.4201 262.881 75.2921L253.937 70.8199C251.052 76.5906 249.697 83.1875 249.697 90.464H259.697ZM262.881 75.2921C264.966 71.1222 267.804 68.0059 271.397 65.7943L266.157 57.2777C260.876 60.5274 256.801 65.0911 253.937 70.8199L262.881 75.2921ZM271.361 65.8163C275.006 63.6157 279.337 62.44 284.521 62.44V52.44C277.759 52.44 271.593 53.995 266.193 57.2557L271.361 65.8163ZM284.521 62.44C289.881 62.44 293.725 63.6979 296.483 65.7813L302.511 57.8027C297.589 54.0834 291.449 52.44 284.521 52.44V62.44ZM296.525 65.8129C299.316 67.8754 300.945 70.6102 301.454 74.3678L311.364 73.0242C310.508 66.7125 307.529 61.5113 302.469 57.7711L296.525 65.8129ZM305.702 68.7463L304.806 68.8742L306.22 78.7737L307.116 78.6457L305.702 68.7463ZM310.513 73.824V58.72H300.513V73.824H310.513ZM305.513 63.72H324.329V53.72H305.513V63.72ZM319.329 58.72V121.184H329.329V58.72H319.329ZM319.329 121.184C319.329 129.345 316.685 135.256 311.718 139.543L318.252 147.113C325.743 140.648 329.329 131.796 329.329 121.184H319.329ZM311.689 139.568C306.622 144.01 299.391 146.52 289.385 146.52V156.52C301.054 156.52 310.889 153.568 318.281 147.088L311.689 139.568ZM290.153 113.256C295.944 113.256 300.997 111.226 304.847 107.027L297.475 100.269C295.693 102.214 293.408 103.256 290.153 103.256V113.256ZM304.892 106.976C308.786 102.61 310.385 96.7795 310.385 90.208H300.385C300.385 95.2418 299.168 98.3712 297.43 100.32L304.892 106.976ZM310.385 90.208C310.385 83.6116 308.729 77.763 304.668 73.4629L297.398 80.3291C299.139 82.173 300.385 85.1991 300.385 90.208H310.385ZM304.764 73.5679C300.909 69.2449 295.788 67.16 289.897 67.16V77.16C293.222 77.16 295.525 78.2324 297.302 80.2241L304.764 73.5679ZM289.897 67.16C284.115 67.16 279.092 69.2851 275.207 73.5129L282.571 80.2791C284.488 78.1922 286.804 77.16 289.897 77.16V67.16ZM275.158 73.5679C271.264 77.9339 269.665 83.7645 269.665 90.336H279.665C279.665 85.3022 280.882 82.1728 282.62 80.2241L275.158 73.5679ZM269.665 90.336C269.665 96.8968 271.259 102.724 275.203 107.027L282.575 100.269C280.887 98.4278 279.665 95.3805 279.665 90.336H269.665ZM275.254 107.081C279.191 111.25 284.308 113.256 290.153 113.256V103.256C286.782 103.256 284.39 102.19 282.524 100.215L275.254 107.081ZM351.456 121.056L349.081 125.456L349.109 125.471L349.136 125.485L351.456 121.056ZM338.912 109.024L334.562 111.489L334.577 111.516L334.593 111.543L338.912 109.024ZM338.912 73.696L334.593 71.1766L334.586 71.1881L334.58 71.1995L338.912 73.696ZM351.328 61.792L353.677 66.2057L353.705 66.1911L353.732 66.1761L351.328 61.792ZM402.784 93.92L407.769 94.3035L407.77 94.2899L407.771 94.2762L402.784 93.92ZM402.4 97.12V102.12H406.636L407.332 97.942L402.4 97.12ZM345.824 97.12H340.824V102.12H345.824V97.12ZM345.824 84.448V79.448H340.824V84.448H345.824ZM386.912 84.448L389.758 88.559L402.918 79.448H386.912V84.448ZM383.584 86.752H378.584V96.2948L386.43 90.863L383.584 86.752ZM379.744 75.104L376.149 78.5791L376.208 78.64L376.269 78.6989L379.744 75.104ZM357.728 76.384L353.871 73.2021L353.847 73.2311L353.824 73.2605L357.728 76.384ZM357.728 106.592L353.903 109.813L353.928 109.842L353.953 109.87L357.728 106.592ZM378.208 109.92L380.303 114.46L380.303 114.46L378.208 109.92ZM383.2 104.928V99.928H380.058L378.695 102.759L383.2 104.928ZM401.248 104.928L405.985 106.528L408.215 99.928H401.248V104.928ZM390.24 119.904L393.107 124L393.114 123.995L393.121 123.991L390.24 119.904ZM370.4 120.28C363.798 120.28 358.309 119.001 353.776 116.627L349.136 125.485C355.355 128.743 362.495 130.28 370.4 130.28V120.28ZM353.831 116.656C349.237 114.177 345.74 110.806 343.231 106.505L334.593 111.543C338.057 117.482 342.923 122.132 349.081 125.456L353.831 116.656ZM343.262 106.559C340.84 102.285 339.56 97.2671 339.56 91.36H329.56C329.56 98.7649 331.181 105.523 334.562 111.489L343.262 106.559ZM339.56 91.36C339.56 85.3531 340.846 80.3537 343.244 76.1925L334.58 71.1995C331.175 77.1076 329.56 83.8843 329.56 91.36H339.56ZM343.231 76.2154C345.744 71.9069 349.197 68.5906 353.677 66.2057L348.979 57.3783C342.878 60.6254 338.053 65.2451 334.593 71.1766L343.231 76.2154ZM353.732 66.1761C358.176 63.7392 363.468 62.44 369.76 62.44V52.44C362.057 52.44 355.061 54.0422 348.924 57.4079L353.732 66.1761ZM369.76 62.44C375.819 62.44 380.801 63.6632 384.881 65.9139L389.711 57.1581C383.892 53.9474 377.184 52.44 369.76 52.44V62.44ZM384.881 65.9139C389.026 68.2011 392.188 71.335 394.456 75.3757L403.176 70.4803C399.983 64.793 395.464 60.3322 389.711 57.1581L384.881 65.9139ZM394.456 75.3757C396.698 79.369 397.912 84.2134 397.912 90.08H407.912C407.912 82.8053 406.395 76.215 403.176 70.4803L394.456 75.3757ZM397.912 90.08C397.912 91.3425 397.873 92.5027 397.797 93.5638L407.771 94.2762C407.866 92.948 407.912 91.5481 407.912 90.08H397.912ZM397.799 93.5365C397.724 94.5093 397.613 95.4292 397.468 96.298L407.332 97.942C407.529 96.7628 407.673 95.5493 407.769 94.3035L397.799 93.5365ZM402.4 92.12H345.824V102.12H402.4V92.12ZM350.824 97.12V84.448H340.824V97.12H350.824ZM345.824 89.448H386.912V79.448H345.824V89.448ZM384.066 80.337L380.738 82.641L386.43 90.863L389.758 88.559L384.066 80.337ZM388.584 86.752C388.584 80.7626 387.142 75.3011 383.219 71.5091L376.269 78.6989C377.466 79.8562 378.584 82.1601 378.584 86.752H388.584ZM383.339 71.6289C379.72 67.8846 374.889 66.264 369.504 66.264V76.264C372.823 76.264 374.819 77.2033 376.149 78.5791L383.339 71.6289ZM369.504 66.264C363.208 66.264 357.775 68.4704 353.871 73.2021L361.585 79.5659C363.313 77.471 365.731 76.264 369.504 76.264V66.264ZM353.824 73.2605C350.082 77.9372 348.632 84.3831 348.632 91.744H358.632C358.632 85.4515 359.912 81.6575 361.632 79.5075L353.824 73.2605ZM348.632 91.744C348.632 98.9425 350.086 105.279 353.903 109.813L361.553 103.371C359.909 101.42 358.632 97.8575 358.632 91.744H348.632ZM353.953 109.87C357.979 114.507 363.728 116.456 370.272 116.456V106.456C365.722 106.456 363.109 105.163 361.503 103.314L353.953 109.87ZM370.272 116.456C373.887 116.456 377.282 115.854 380.303 114.46L376.113 105.38C374.697 106.034 372.801 106.456 370.272 106.456V116.456ZM380.303 114.46C383.628 112.925 386.117 110.394 387.705 107.097L378.695 102.759C378.064 104.07 377.225 104.867 376.113 105.38L380.303 114.46ZM383.2 109.928H401.248V99.928H383.2V109.928ZM396.511 103.328C394.7 108.688 391.656 112.789 387.359 115.817L393.121 123.991C399.235 119.681 403.529 113.798 405.985 106.528L396.511 103.328ZM387.373 115.808C383.311 118.651 377.784 120.28 370.4 120.28V130.28C379.229 130.28 386.929 128.325 393.107 124L387.373 115.808ZM417.389 119.52L414.572 123.651L414.572 123.651L417.389 119.52ZM408.173 103.648V98.648H402.779L403.187 104.027L408.173 103.648ZM425.325 103.648L430.272 102.921L429.643 98.648H425.325V103.648ZM429.677 110.304L427.04 114.552L427.125 114.605L427.212 114.654L429.677 110.304ZM448.877 110.816L451.509 115.067L451.535 115.051L451.561 115.034L448.877 110.816ZM450.029 102.112L446.65 105.798L446.809 105.944L446.98 106.075L450.029 102.112ZM444.269 99.808L445.307 94.9168L445.295 94.9144L445.284 94.9121L444.269 99.808ZM433.773 97.632L432.751 102.526L432.758 102.528L433.773 97.632ZM416.621 90.336L413.262 94.0396L413.286 94.0613L413.31 94.0826L416.621 90.336ZM418.413 62.816L421.333 66.875L421.356 66.8583L421.379 66.8413L418.413 62.816ZM459.373 62.688L456.552 66.8162L456.576 66.8324L456.599 66.8482L459.373 62.688ZM467.821 77.024V82.024H473.255L472.804 76.6088L467.821 77.024ZM450.669 77.024L445.727 77.7843L446.379 82.024H450.669V77.024ZM447.085 72.032L444.566 76.3509L444.634 76.3908L444.704 76.4285L447.085 72.032ZM430.701 71.776L433.206 76.1031L433.24 76.0836L433.273 76.0635L430.701 71.776ZM430.317 79.584L427.484 83.7042L427.574 83.7661L427.667 83.824L430.317 79.584ZM437.101 81.888L436.044 86.7751L436.067 86.78L436.09 86.7847L437.101 81.888ZM448.877 84.32L449.894 79.4246L449.888 79.4233L448.877 84.32ZM463.725 92L459.983 95.3165L460.023 95.3615L460.064 95.4055L463.725 92ZM461.293 120.032L464.179 124.115L464.186 124.11L464.193 124.105L461.293 120.032ZM440.173 120.28C431.231 120.28 424.735 118.477 420.206 115.389L414.572 123.651C421.307 128.243 430.001 130.28 440.173 130.28V120.28ZM420.206 115.389C415.817 112.397 413.554 108.481 413.159 103.269L403.187 104.027C403.816 112.298 407.697 118.963 414.572 123.651L420.206 115.389ZM408.173 108.648H425.325V98.648H408.173V108.648ZM420.378 104.375C421.017 108.722 423.305 112.234 427.04 114.552L432.314 106.056C431.1 105.302 430.486 104.377 430.272 102.921L420.378 104.375ZM427.212 114.654C430.811 116.694 435.277 117.48 440.173 117.48V107.48C436.195 107.48 433.663 106.816 432.142 105.954L427.212 114.654ZM440.173 117.48C444.408 117.48 448.487 116.938 451.509 115.067L446.245 106.565C445.683 106.913 443.96 107.48 440.173 107.48V117.48ZM451.561 115.034C454.806 112.97 456.693 109.754 456.693 105.824H446.693C446.693 105.989 446.675 106.088 446.663 106.136C446.652 106.182 446.641 106.203 446.634 106.215C446.63 106.222 446.553 106.369 446.193 106.598L451.561 115.034ZM456.693 105.824C456.693 102.929 455.622 100.106 453.078 98.1489L446.98 106.075C446.952 106.053 446.901 106.008 446.845 105.938C446.788 105.867 446.744 105.792 446.714 105.725C446.653 105.587 446.693 105.583 446.693 105.824H456.693ZM453.408 98.4262C451.326 96.5181 448.244 95.5399 445.307 94.9168L443.231 104.699C444.459 104.96 445.35 105.229 445.964 105.474C446.611 105.733 446.745 105.885 446.65 105.798L453.408 98.4262ZM445.284 94.9121L434.788 92.7361L432.758 102.528L443.254 104.704L445.284 94.9121ZM434.795 92.7375C427.407 91.195 422.666 89.0053 419.932 86.5894L413.31 94.0826C417.915 98.1521 424.608 100.826 432.751 102.526L434.795 92.7375ZM419.98 86.6324C417.414 84.3052 416.117 81.4116 416.117 77.536H406.117C406.117 84.0711 408.489 89.7108 413.262 94.0396L419.98 86.6324ZM416.117 77.536C416.117 72.7281 417.856 69.3761 421.333 66.875L415.493 58.757C409.242 63.2532 406.117 69.7145 406.117 77.536H416.117ZM421.379 66.8413C425.079 64.1147 430.675 62.44 438.765 62.44V52.44C429.447 52.44 421.475 54.3493 415.447 58.7907L421.379 66.8413ZM438.765 62.44C446.757 62.44 452.53 64.0675 456.552 66.8162L462.194 58.5598C455.976 54.3111 448.01 52.44 438.765 52.44V62.44ZM456.599 66.8482C460.448 69.4136 462.453 72.8118 462.838 77.4392L472.804 76.6088C472.165 68.9482 468.538 62.789 462.147 58.5277L456.599 66.8482ZM467.821 72.024H450.669V82.024H467.821V72.024ZM455.611 76.2637C455.021 72.4325 452.829 69.457 449.466 67.6355L444.704 76.4285C445.437 76.8257 445.634 77.1782 445.727 77.7843L455.611 76.2637ZM449.604 67.7131C446.469 65.8842 442.552 65.24 438.381 65.24V75.24C441.719 75.24 443.605 75.7905 444.566 76.3509L449.604 67.7131ZM438.381 65.24C434.631 65.24 430.987 65.7734 428.129 67.4885L433.273 76.0635C433.828 75.7306 435.304 75.24 438.381 75.24V65.24ZM428.196 67.4489C425.117 69.2315 423.269 72.1983 423.269 75.872H433.269C433.269 75.8023 433.277 75.8018 433.264 75.8514C433.25 75.9045 433.222 75.9789 433.176 76.0567C433.131 76.1336 433.089 76.1776 433.076 76.1898C433.066 76.1992 433.099 76.1652 433.206 76.1031L428.196 67.4489ZM423.269 75.872C423.269 79.2016 424.888 81.9193 427.484 83.7042L433.15 75.4638C433.07 75.4093 433.049 75.3836 433.062 75.3972C433.077 75.4127 433.116 75.4589 433.159 75.5366C433.202 75.6154 433.234 75.6982 433.252 75.7729C433.27 75.8456 433.269 75.8834 433.269 75.872H423.269ZM427.667 83.824C429.801 85.1577 432.773 86.0677 436.044 86.7751L438.158 77.0009C435.114 76.3429 433.564 75.717 432.967 75.344L427.667 83.824ZM436.09 86.7847L447.866 89.2167L449.888 79.4233L438.112 76.9913L436.09 86.7847ZM447.86 89.2154C453.729 90.435 457.577 92.6013 459.983 95.3165L467.467 88.6835C463.217 83.8894 457.167 80.9357 449.894 79.4246L447.86 89.2154ZM460.064 95.4055C462.612 98.1449 463.845 101.278 463.845 105.056H473.845C473.845 98.7642 471.664 93.1938 467.386 88.5945L460.064 95.4055ZM463.845 105.056C463.845 109.907 462.056 113.352 458.393 115.959L464.193 124.105C470.6 119.544 473.845 113.005 473.845 105.056H463.845ZM458.407 115.949C454.631 118.618 448.763 120.28 440.173 120.28V130.28C449.844 130.28 458.057 128.443 464.179 124.115L458.407 115.949Z" fill="#3DCFB6" mask="url(#path-1-outside-1_9_4)"/>
<mask id="path-3-outside-2_9_4" maskUnits="userSpaceOnUse" x="0" y="38" width="81" height="91" fill="black">
<rect fill="white" y="38" width="81" height="91"/>
<path d="M5.6 124V43.36H27.888L63.728 114.592L58.24 115.936V43.36H75.04V124H52.752L16.912 52.768L22.4 51.424V124H5.6Z"/>
</mask>
<path d="M5.6 124H0.6V129H5.6V124ZM5.6 43.36V38.36H0.6V43.36H5.6ZM27.888 43.36L32.3545 41.1127L30.9695 38.36H27.888V43.36ZM63.728 114.592L64.9173 119.448L71.0171 117.955L68.1945 112.345L63.728 114.592ZM58.24 115.936H53.24V122.308L59.4293 120.792L58.24 115.936ZM58.24 43.36V38.36H53.24V43.36H58.24ZM75.04 43.36H80.04V38.36H75.04V43.36ZM75.04 124V129H80.04V124H75.04ZM52.752 124L48.2855 126.247L49.6705 129H52.752V124ZM16.912 52.768L15.7227 47.9115L9.62287 49.4053L12.4455 55.0153L16.912 52.768ZM22.4 51.424H27.4V45.0518L21.2107 46.5675L22.4 51.424ZM22.4 124V129H27.4V124H22.4ZM10.6 124V43.36H0.6V124H10.6ZM5.6 48.36H27.888V38.36H5.6V48.36ZM23.4215 45.6073L59.2615 116.839L68.1945 112.345L32.3545 41.1127L23.4215 45.6073ZM62.5387 109.736L57.0507 111.08L59.4293 120.792L64.9173 119.448L62.5387 109.736ZM63.24 115.936V43.36H53.24V115.936H63.24ZM58.24 48.36H75.04V38.36H58.24V48.36ZM70.04 43.36V124H80.04V43.36H70.04ZM75.04 119H52.752V129H75.04V119ZM57.2185 121.753L21.3785 50.5207L12.4455 55.0153L48.2855 126.247L57.2185 121.753ZM18.1013 57.6245L23.5893 56.2805L21.2107 46.5675L15.7227 47.9115L18.1013 57.6245ZM17.4 51.424V124H27.4V51.424H17.4ZM22.4 119H5.6V129H22.4V119Z" fill="white" mask="url(#path-3-outside-2_9_4)"/>
</svg>
